<svg xmlns="http://www.w3.org/2000/svg" width="64" height="64" viewBox="0 0 16.933 16.933"><path fill="green" d="M0 0h16.961v16.933H0z"/><path d="M5.395 4.5h.882v.881h-.882v2.204a.882.882 0 01-.881.882c.486 0 .88.395.881.881v2.204h.882v.881h-.882c-.471-.119-.881-.396-.881-.881V9.789a.882.882 0 00-.882-.882h-.44v-.881h.44a.882.882 0 00.882-.882V5.381c0-.486.395-.88.881-.881m6.171 0c.487 0 .881.394.882.881v1.763c0 .487.394.881.881.882h.44v.881h-.44a.882.882 0 00-.881.882v1.763a.882.882 0 01-.882.881h-.882v-.881h.882V9.348c0-.487.395-.881.882-.881a.882.882 0 01-.882-.882V5.381h-.882V4.5h.882" fill="#fff"/><path d="M8.466 7.337a.794.794 0 00.794-.794.794.794 0 00-.793-.794.794.794 0 00-.794.794.794.794 0 00.793.794m0 .936a3.48 3.48 0 00-2.38-.936v2.91a3.48 3.48 0 012.38.937 3.48 3.48 0 012.382-.937v-2.91a3.48 3.48 0 00-2.382.936z" fill="#fff"/></svg>